<svg width="75" height="84" viewBox="0 0 75 84" fill="none" xmlns="http://www.w3.org/2000/svg">
<path fill-rule="evenodd" clip-rule="evenodd" d="M45.7081 0C44.0513 0 42.7081 1.34315 42.7081 3V10.7295C38.4424 9.14981 33.6252 9.57672 29.6576 12.0102L7.15758 25.8102C2.71052 28.5377 0 33.3799 0 38.5968V68.2002C0 76.4845 6.71573 83.2002 15 83.2002H60C68.2843 83.2002 75 76.4845 75 68.2002V38.5968C75 33.3799 72.2895 28.5377 67.8424 25.8102L62.3056 22.4143C61.3936 21.8549 60.2028 22.1124 59.6034 22.9986L58.4816 24.6568C57.8431 25.6007 58.1212 26.8865 59.0926 27.4823L64.7055 30.9248C67.3737 32.5614 69 35.4667 69 38.5968V68.2002C69 73.1708 64.9706 77.2002 60 77.2002H15C10.0294 77.2002 6 73.1708 6 68.2002V38.5968C6 35.4667 7.62631 32.5614 10.2945 30.9248L32.7945 17.1248C35.6816 15.3541 39.3184 15.3541 42.2055 17.1248L43.3093 17.8019C43.8567 18.5295 44.7275 19 45.7081 19H46.9998C48.6566 19 49.9998 17.6569 49.9998 16V3C49.9998 1.34315 48.6566 0 46.9998 0H45.7081Z" fill="#C80000"/>
<circle cx="32" cy="44" r="4" fill="#C80000"/>
<circle cx="44" cy="44" r="4" fill="#C80000"/>
<circle cx="44" cy="56" r="4" fill="#C80000"/>
<circle cx="32" cy="56" r="4" fill="#C80000"/>
</svg>
