<svg width="73" height="73" viewBox="0 0 73 73" fill="none" xmlns="http://www.w3.org/2000/svg">
<path fill-rule="evenodd" clip-rule="evenodd" d="M14 6C9.58172 6 6 9.58167 6 14C6 18.4183 9.58172 22 14 22H38H53H59C66.0529 22 71.8878 27.2155 72.8582 34H73V36V59C73 66.7319 66.732 73 59 73H38H14C6.26801 73 0 66.7319 0 59V14C0 6.26807 6.26801 0 14 0H59C66.1069 0 71.977 5.29553 72.8796 12.156C72.958 12.4237 73 12.7069 73 13V14V16C73 17.6569 71.6569 19 70 19C68.3431 19 67 17.6569 67 16V14C67 9.58167 63.4183 6 59 6H14ZM14 28H38H53H59C63.4183 28 67 31.5817 67 36V59C67 63.4183 63.4183 67 59 67H38H14C9.58172 67 6 63.4183 6 59V25.4906C8.26767 27.0724 11.0255 28 14 28ZM57.6 52.2C59.5882 52.2 61.2 50.5883 61.2 48.6C61.2 46.6118 59.5882 45 57.6 45C55.6118 45 54 46.6118 54 48.6C54 50.5883 55.6118 52.2 57.6 52.2ZM13 14.5C13 13.1193 14.1193 12 15.5 12H58.5C59.8807 12 61 13.1193 61 14.5C61 15.8807 59.8807 17 58.5 17H15.5C14.1193 17 13 15.8807 13 14.5Z" fill="#C80000"/>
</svg>
