<svg width="75" height="81" viewBox="0 0 75 81" fill="none" xmlns="http://www.w3.org/2000/svg">
<rect x="2" y="42" width="73" height="39" rx="2" fill="#510000"/>
<path fillRule="evenodd" clipRule="evenodd" d="M4.05685 26.1042C4.02181 26.04 3.95432 25.9992 3.88126 26.0035C2.83197 26.0649 2 26.9353 2 28V35C2 36.1046 2.89543 37 4 37H9.66309C9.8149 37 9.91137 36.8375 9.83867 36.7042L4.05685 26.1042ZM10.3369 26C10.1851 26 10.0886 26.1625 10.1613 26.2958L15.9431 36.8958C15.9782 36.96 16.0455 37 16.1187 37H24.6631C24.8149 37 24.9114 36.8375 24.8387 36.7042L19.0569 26.1042C19.0218 26.04 18.9545 26 18.8813 26H10.3369ZM39.8387 36.7042C39.9114 36.8375 39.8149 37 39.6631 37H31.1187C31.0455 37 30.9782 36.96 30.9431 36.8958L25.1613 26.2958C25.0886 26.1625 25.1851 26 25.3369 26H33.8813C33.9545 26 34.0218 26.04 34.0569 26.1042L39.8387 36.7042ZM45.9431 36.8958C45.9782 36.96 46.0455 37 46.1187 37H54.6631C54.8149 37 54.9114 36.8375 54.8387 36.7042L49.0569 26.1042C49.0218 26.04 48.9545 26 48.8813 26H40.3369C40.1851 26 40.0886 26.1625 40.1613 26.2958L45.9431 36.8958ZM69.8387 36.7042C69.9114 36.8375 69.8149 37 69.6631 37H61.1187C61.0455 37 60.9782 36.96 60.9431 36.8958L55.1613 26.2958C55.0886 26.1625 55.1851 26 55.3369 26H63.8813C63.9545 26 64.0218 26.04 64.0569 26.1042L69.8387 36.7042ZM74.9194 35.0189C74.9414 35.0593 75 35.046 75 35V28C75 26.8954 74.1046 26 73 26H70.3369C70.1851 26 70.0886 26.1625 70.1613 26.2958L74.9194 35.0189Z" fill="#C80000"/>
<path fillRule="evenodd" clipRule="evenodd" d="M2.03358 14.852C1.98594 14.7965 1.91145 14.7706 1.84087 14.79C0.82728 15.0682 0.194458 16.0926 0.415823 17.134L1.87121 23.9811C2.10086 25.0615 3.16289 25.7512 4.24332 25.5215L9.78266 24.3441C9.93116 24.3125 9.99173 24.1335 9.89291 24.0183L2.03358 14.852ZM8.15473 13.4444C8.00623 13.476 7.94566 13.655 8.04448 13.7702L15.9038 22.9365C15.9515 22.992 16.0256 23.0171 16.0972 23.0019L24.4549 21.2254C24.6034 21.1939 24.6639 21.0149 24.5651 20.8996L16.7058 11.7334C16.6582 11.6778 16.584 11.6527 16.5124 11.6679L8.15473 13.4444ZM39.2373 17.7809C39.3362 17.8962 39.2756 18.0752 39.1271 18.1068L30.7694 19.8832C30.6979 19.8985 30.6237 19.8733 30.576 19.8178L22.7167 10.6515C22.6179 10.5363 22.6784 10.3573 22.8269 10.3257L31.1846 8.54925C31.2562 8.53403 31.3304 8.55913 31.378 8.61469L39.2373 17.7809ZM45.2482 16.6991C45.2959 16.7547 45.3701 16.7798 45.4417 16.7646L53.7993 14.9881C53.9478 14.9565 54.0084 14.7775 53.9096 14.6623L46.0502 5.49602C46.0026 5.44046 45.9284 5.41535 45.8568 5.43057L37.4992 7.20704C37.3507 7.23861 37.2901 7.41761 37.3889 7.53286L45.2482 16.6991ZM68.5818 11.5436C68.6806 11.6588 68.62 11.8378 68.4715 11.8694L60.1139 13.6459C60.0423 13.6611 59.9681 13.636 59.9205 13.5804L52.0611 4.41418C51.9623 4.29893 52.0229 4.11993 52.1714 4.08837L60.529 2.31189C60.6006 2.29668 60.6748 2.32178 60.7224 2.37734L68.5818 11.5436ZM73.2011 8.83874C73.231 8.87365 73.2855 8.84849 73.276 8.80351L71.8206 1.95648C71.5909 0.876045 70.5289 0.186352 69.4485 0.416005L66.8436 0.969693C66.6951 1.00126 66.6345 1.18026 66.7333 1.2955L73.2011 8.83874Z" fill="#C80000"/>
</svg>
