<svg width="79" height="88" viewBox="0 0 79 88" fill="none" xmlns="http://www.w3.org/2000/svg">
<path d="M25.2618 69.1321L26.7648 66.5358L25.2618 69.1321ZM11.5818 69.033L11.4566 66.0356L11.5818 69.033ZM67.4672 69.0349L67.5745 66.0368L67.4672 69.0349ZM53.5949 19.4936L52.0919 22.0899L53.5949 19.4936ZM67.3643 19.5195L67.2199 16.523L67.3643 19.5195ZM74.7664 32.1124L72.2157 30.5333L74.7664 32.1124ZM55.0979 16.8972L51.738 14.9522L48.732 20.1449L52.0919 22.0899L55.0979 16.8972ZM67.7663 16.5098C67.5833 16.5098 67.4011 16.5142 67.2199 16.523L67.5088 22.516C67.5939 22.5119 67.6797 22.5098 67.7663 22.5098V16.5098ZM78.9994 27.7648C78.9994 21.5564 73.9777 16.5098 67.7663 16.5098V22.5098C70.649 22.5098 72.9994 24.8551 72.9994 27.7648H78.9994ZM77.3172 33.6916C78.3842 31.968 78.9994 29.9336 78.9994 27.7648H72.9994C72.9994 28.7868 72.7119 29.7317 72.2157 30.5333L77.3172 33.6916ZM78.9994 60.7852C78.9994 58.6164 78.3842 56.5821 77.3172 54.8585L72.2157 58.0168C72.7119 58.8183 72.9994 59.7633 72.9994 60.7852H78.9994ZM67.7663 72.0402C73.9777 72.0402 78.9994 66.9937 78.9994 60.7852H72.9994C72.9994 63.695 70.649 66.0402 67.7663 66.0402V72.0402ZM67.3598 72.033C67.4949 72.0378 67.6304 72.0402 67.7663 72.0402V66.0402C67.702 66.0402 67.6381 66.0391 67.5745 66.0368L67.3598 72.033ZM51.5516 73.7059L55.0091 71.7044L52.0032 66.5117L48.5456 68.5132L51.5516 73.7059ZM44.5961 76.7452C44.5961 79.655 42.2457 82.0002 39.363 82.0002V88.0002C45.5744 88.0002 50.5961 82.9537 50.5961 76.7452H44.5961ZM39.363 82.0002C36.4803 82.0002 34.1299 79.655 34.1299 76.7452H28.1299C28.1299 82.9537 33.1516 88.0002 39.363 88.0002V82.0002ZM23.7588 71.7285L27.1744 73.7057L30.1803 68.513L26.7648 66.5358L23.7588 71.7285ZM11.2331 72.0402C11.3917 72.0402 11.5497 72.0369 11.7071 72.0303L11.4566 66.0356C11.3827 66.0387 11.3082 66.0402 11.2331 66.0402V72.0402ZM0 60.7852C0 66.9937 5.02173 72.0402 11.2331 72.0402V66.0402C8.35046 66.0402 6 63.695 6 60.7852H0ZM1.48579 55.1883C0.539713 56.8397 0 58.754 0 60.7852H6C6 59.8272 6.25258 58.9378 6.692 58.1708L1.48579 55.1883ZM0 27.7648C0 29.796 0.539713 31.7103 1.48579 33.3618L6.692 30.3793C6.25258 29.6122 6 28.7229 6 27.7648H0ZM11.2331 16.5098C5.02173 16.5098 0 21.5564 0 27.7648H6C6 24.8551 8.35046 22.5098 11.2331 22.5098V16.5098ZM11.8434 16.5262C11.6411 16.5153 11.4376 16.5098 11.2331 16.5098V22.5098C11.3299 22.5098 11.4257 22.5124 11.5206 22.5175L11.8434 16.5262ZM26.9884 14.9522L23.6722 16.8719L26.6782 22.0646L29.9944 20.1449L26.9884 14.9522ZM39.3632 0C33.1518 0 28.1301 5.04656 28.1301 11.255H34.1301C34.1301 8.34523 36.4805 6 39.3632 6V0ZM50.5963 11.255C50.5963 5.04656 45.5746 0 39.3632 0V6C42.2458 6 44.5963 8.34523 44.5963 11.255H50.5963ZM13.8428 44.275C13.8428 41.0025 12.2689 38.2625 10.7936 36.1342C10.0515 35.0636 9.20973 33.9805 8.51571 33.0535C7.78612 32.079 7.1701 31.2138 6.692 30.3793L1.48579 33.3618C2.15731 34.534 2.96034 35.6446 3.71265 36.6494C4.50054 37.7018 5.20352 38.6017 5.86246 39.5524C7.18938 41.4666 7.84278 42.9221 7.84278 44.275H13.8428ZM6.692 58.1708C7.1701 57.3362 7.78612 56.471 8.51571 55.4965C9.20973 54.5695 10.0515 53.4864 10.7936 52.4158C12.2689 50.2876 13.8428 47.5476 13.8428 44.275H7.84278C7.84278 45.6279 7.18938 47.0834 5.86246 48.9977C5.20352 49.9483 4.50054 50.8482 3.71265 51.9006C2.96034 52.9055 2.15731 54.0161 1.48579 55.1883L6.692 58.1708ZM26.7648 66.5358C23.976 64.9214 20.8813 64.9338 18.3536 65.1823C17.0736 65.3081 15.7651 65.5172 14.6289 65.6848C13.4438 65.8596 12.4075 65.9958 11.4566 66.0356L11.7071 72.0303C13.0013 71.9763 14.3113 71.7966 15.5044 71.6206C16.7465 71.4374 17.848 71.2609 18.9406 71.1535C21.158 70.9355 22.6582 71.0913 23.7588 71.7285L26.7648 66.5358ZM34.1299 76.7452C34.1299 74.3618 33.5286 70.4513 30.1803 68.513L27.1744 73.7057C27.3552 73.8104 27.5913 74.0363 27.7984 74.584C28.0125 75.1504 28.1299 75.9051 28.1299 76.7452H34.1299ZM48.5456 68.5132C45.1974 70.4514 44.5961 74.3619 44.5961 76.7452H50.5961C50.5961 75.9051 50.7135 75.1504 50.9276 74.5842C51.1346 74.0364 51.3707 73.8106 51.5516 73.7059L48.5456 68.5132ZM67.5745 66.0368C66.6122 66.0023 65.5589 65.866 64.3534 65.6873C63.1998 65.5163 61.8626 65.2989 60.562 65.1659C57.9926 64.9032 54.8375 64.8709 52.0032 66.5117L55.0091 71.7044C56.1349 71.0527 57.6739 70.9019 59.9517 71.1348C61.0748 71.2496 62.1996 71.4336 63.4736 71.6224C64.6957 71.8036 66.0357 71.9855 67.3598 72.033L67.5745 66.0368ZM64.8835 44.275C64.8835 47.5433 66.4786 50.2609 67.9824 52.3603C68.7432 53.4225 69.5953 54.4758 70.3154 55.3923C71.068 56.3502 71.7086 57.1976 72.2157 58.0168L77.3172 54.8585C76.6194 53.7313 75.7971 52.6576 75.0333 51.6854C74.2369 50.6718 73.5189 49.7861 72.8602 48.8665C71.5249 47.0024 70.8835 45.5849 70.8835 44.275H64.8835ZM52.0919 22.0899C54.9008 23.716 58.0211 23.6864 60.5649 23.4209C61.8543 23.2864 63.1715 23.0671 64.316 22.8905C65.5095 22.7064 66.5526 22.5621 67.5088 22.516L67.2199 16.523C65.9192 16.5857 64.6015 16.7755 63.4012 16.9607C62.1518 17.1534 61.0421 17.3386 59.9422 17.4533C57.7075 17.6865 56.2 17.5352 55.0979 16.8972L52.0919 22.0899ZM72.2157 30.5333C71.7086 31.3524 71.068 32.1999 70.3154 33.1577C69.5953 34.0742 68.7432 35.1275 67.9824 36.1897C66.4786 38.2892 64.8835 41.0067 64.8835 44.275H70.8835C70.8835 42.9651 71.5249 41.5477 72.8602 39.6835C73.5189 38.7639 74.2369 37.8783 75.0333 36.8647C75.7971 35.8925 76.6194 34.8187 77.3172 33.6916L72.2157 30.5333ZM11.5206 22.5175C12.4654 22.5684 13.4916 22.7122 14.665 22.8923C15.792 23.0651 17.0819 23.2762 18.3507 23.4035C20.8534 23.6546 23.9144 23.6645 26.6782 22.0646L23.6722 16.8719C22.5948 17.4956 21.1252 17.6517 18.9497 17.4334C17.8793 17.3261 16.7931 17.1485 15.5748 16.9616C14.403 16.7819 13.1146 16.5947 11.8434 16.5262L11.5206 22.5175ZM29.9944 20.1449C31.819 19.0887 32.8499 17.4307 33.4114 15.8564C33.9666 14.2996 34.1301 12.6552 34.1301 11.255H28.1301C28.1301 12.2428 28.0075 13.1469 27.76 13.8409C27.5188 14.5172 27.2304 14.8121 26.9884 14.9522L29.9944 20.1449ZM44.5963 11.255C44.5963 12.6553 44.7598 14.2996 45.315 15.8564C45.8764 17.4307 46.9074 19.0887 48.732 20.1449L51.738 14.9522C51.4959 14.8121 51.2075 14.5173 50.9663 13.8409C50.7188 13.147 50.5963 12.2428 50.5963 11.255H44.5963Z" fill="#C80000"/>
<ellipse cx="39.5" cy="44.0847" rx="15.3506" ry="15.2795" stroke="#C80000" stroke-width="6"/>
</svg>
