<svg width="78" height="75" viewBox="0 0 78 75" fill="none" xmlns="http://www.w3.org/2000/svg">
<path d="M43.823 5.17637L41.9115 5.76465L43.823 5.17637ZM35.2212 5.17637L37.1327 5.76465V5.76465L35.2212 5.17637ZM49.8447 24.743L47.9332 25.3313L48.3677 26.743H49.8447V24.743ZM73.7891 32.8132L72.5717 31.2265L73.7891 32.8132ZM56.4278 46.1336L55.2103 44.5468L54.1073 45.3931L54.5162 46.7219L56.4278 46.1336ZM62.7383 66.6386L64.6498 66.0504L62.7383 66.6386ZM55.7139 71.5445L54.5034 73.1367V73.1367L55.7139 71.5445ZM39.4369 59.1697L40.6473 57.5776L39.4313 56.6531L38.2194 57.5829L39.4369 59.1697ZM23.353 71.5099L22.1356 69.9231L23.353 71.5099ZM16.3129 66.616L18.2244 67.2043L16.3129 66.616ZM22.5546 46.3346L24.4661 46.9229L24.8769 45.5879L23.765 44.7425L22.5546 46.3346ZM4.78529 32.8253L5.99572 31.2331L4.78529 32.8253ZM29.1995 24.743V26.743H30.6765L31.111 25.3313L29.1995 24.743ZM50.4501 50.7199L48.5395 51.3114L49.389 54.0549L51.6675 52.3067L50.4501 50.7199ZM48.2736 43.6904L47.0536 42.1056L45.9519 42.9537L46.3631 44.2819L48.2736 43.6904ZM50.5028 50.6795L52.4143 50.0912L51.568 47.3413L49.2853 49.0927L50.5028 50.6795ZM53.761 61.2665L52.5505 62.8586L57.5021 66.6232L55.6725 60.6782L53.761 61.2665ZM53.7014 61.2212L54.9118 59.6291L49.9459 55.8536L51.7908 61.8127L53.7014 61.2212ZM53.7176 61.2737L52.5034 62.8629L57.4807 66.6658L55.6281 60.6822L53.7176 61.2737ZM39.5224 50.4278L40.7367 48.8386L39.5224 47.9108L38.3082 48.8386L39.5224 50.4278ZM25.3273 61.2737L23.4168 60.6821L21.5641 66.6659L26.5415 62.8629L25.3273 61.2737ZM25.3685 61.1406L27.279 61.7322L29.1381 55.7277L24.1511 59.5538L25.3685 61.1406ZM25.3076 61.1873L23.396 60.5991L21.5526 66.589L26.525 62.7741L25.3076 61.1873ZM28.4898 50.847L29.7003 49.2549L27.4206 47.5217L26.5783 50.2588L28.4898 50.847ZM28.543 50.8874L27.3325 52.4795L29.608 54.2096L30.4535 51.4789L28.543 50.8874ZM30.7364 43.8029L32.6469 44.3944L33.0625 43.0521L31.9406 42.206L30.7364 43.8029ZM14.6796 31.6944L14.6796 29.6944L8.70577 29.6944L13.4754 33.2912L14.6796 31.6944ZM34.4853 31.6943L34.4853 33.6943L35.9598 33.6943L36.3959 32.2858L34.4853 31.6943ZM36.6375 24.743L38.5481 25.3345L39.3504 22.743H36.6375V24.743ZM36.5235 24.743L34.6119 24.1547L33.8154 26.743H36.5235V24.743ZM39.5221 14.9994L41.4336 14.4111L39.5221 8.19987L37.6106 14.4111L39.5221 14.9994ZM42.5207 24.743V26.743H45.2288L44.4323 24.1547L42.5207 24.743ZM42.4073 24.743V22.743H39.6945L40.4968 25.3345L42.4073 24.743ZM44.5595 31.6943L42.649 32.2858L43.0851 33.6943L44.5595 33.6943L44.5595 31.6943ZM63.8563 31.6942L65.0764 33.279L69.7329 29.6942L63.8563 29.6942L63.8563 31.6942ZM45.7345 4.5881C43.8519 -1.52924 35.1923 -1.52949 33.3096 4.58809L37.1327 5.76465C37.8568 3.4118 41.1874 3.41177 41.9115 5.76465L45.7345 4.5881ZM51.7562 24.1547L45.7345 4.5881L41.9115 5.76465L47.9332 25.3313L51.7562 24.1547ZM71.0499 22.743H49.8447V26.743H71.0499V22.743ZM75.0066 34.4C79.9341 30.6194 77.2604 22.743 71.0499 22.743V26.743C73.4386 26.743 74.4669 29.7724 72.5717 31.2265L75.0066 34.4ZM57.6452 47.7204L75.0066 34.4L72.5717 31.2265L55.2103 44.5468L57.6452 47.7204ZM64.6498 66.0504L58.3393 45.5453L54.5162 46.7219L60.8267 67.2269L64.6498 66.0504ZM54.5034 73.1367C59.5321 76.9597 66.5079 72.088 64.6498 66.0504L60.8267 67.2269C61.5414 69.549 58.8584 71.4229 56.9243 69.9524L54.5034 73.1367ZM38.2264 60.7618L54.5034 73.1367L56.9243 69.9524L40.6473 57.5776L38.2264 60.7618ZM24.5705 73.0966L40.6543 60.7565L38.2194 57.5829L22.1356 69.9231L24.5705 73.0966ZM14.4014 66.0277C12.539 72.0791 19.547 76.9509 24.5705 73.0966L22.1356 69.9231C20.2035 71.4055 17.5081 69.5318 18.2244 67.2043L14.4014 66.0277ZM20.643 45.7464L14.4014 66.0277L18.2244 67.2043L24.4661 46.9229L20.643 45.7464ZM3.57485 34.4174L21.3441 47.9268L23.765 44.7425L5.99572 31.2331L3.57485 34.4174ZM7.50877 22.743C1.28371 22.743 -1.38071 30.6498 3.57485 34.4174L5.99572 31.2331C4.08975 29.7841 5.1145 26.743 7.50877 26.743V22.743ZM29.1995 22.743H7.50877V26.743H29.1995V22.743ZM33.3096 4.58809L27.2879 24.1547L31.111 25.3313L37.1327 5.76465L33.3096 4.58809ZM52.3606 50.1284L50.1842 43.0988L46.3631 44.2819L48.5395 51.3114L52.3606 50.1284ZM51.6675 52.3067L51.7202 52.2662L49.2853 49.0927L49.2326 49.1332L51.6675 52.3067ZM48.5913 51.2678L51.8495 61.8548L55.6725 60.6782L52.4143 50.0912L48.5913 51.2678ZM54.9714 59.6744L54.9118 59.6291L52.4909 62.8133L52.5505 62.8586L54.9714 59.6744ZM55.6281 60.6822L55.6119 60.6297L51.7908 61.8127L51.8071 61.8652L55.6281 60.6822ZM38.3082 52.017L52.5034 62.8629L54.9319 59.6844L40.7367 48.8386L38.3082 52.017ZM26.5415 62.8629L40.7367 52.017L38.3082 48.8386L24.113 59.6844L26.5415 62.8629ZM23.4579 60.5491L23.4168 60.6821L27.2378 61.8652L27.279 61.7322L23.4579 60.5491ZM24.1511 59.5538L24.0902 59.6005L26.525 62.7741L26.5859 62.7274L24.1511 59.5538ZM27.2191 61.7756L30.4014 51.4353L26.5783 50.2588L23.396 60.5991L27.2191 61.7756ZM27.2794 52.4391L27.3325 52.4795L29.7534 49.2953L29.7003 49.2549L27.2794 52.4391ZM28.8259 43.2114L26.6324 50.2959L30.4535 51.4789L32.6469 44.3944L28.8259 43.2114ZM31.9406 42.206L15.8838 30.0975L13.4754 33.2912L29.5322 45.3997L31.9406 42.206ZM14.6796 33.6944L34.4853 33.6943L34.4853 29.6943L14.6796 29.6944L14.6796 33.6944ZM34.727 24.1515L32.5748 31.1028L36.3959 32.2858L38.5481 25.3345L34.727 24.1515ZM36.5235 26.743H36.6375V22.743H36.5235V26.743ZM37.6106 14.4111L34.6119 24.1547L38.435 25.3313L41.4336 15.5876L37.6106 14.4111ZM44.4323 24.1547L41.4336 14.4111L37.6106 15.5876L40.6092 25.3313L44.4323 24.1547ZM42.4073 26.743H42.5207V22.743H42.4073V26.743ZM46.4701 31.1028L44.3179 24.1515L40.4968 25.3345L42.649 32.2858L46.4701 31.1028ZM44.5595 33.6943L63.8563 33.6942L63.8563 29.6942L44.5595 29.6943L44.5595 33.6943ZM62.6363 30.1094L47.0536 42.1056L49.4937 45.2751L65.0764 33.279L62.6363 30.1094Z" fill="#C80000"/>
</svg>
