<svg width="82" height="75" viewBox="0 0 82 75" fill="none" xmlns="http://www.w3.org/2000/svg">
<path fill-rule="evenodd" clip-rule="evenodd" d="M4 15C1.79086 15 0 13.2091 0 11V4C0 1.79086 1.79086 0 4 0H78C80.2091 0 82 1.79086 82 4V11C82 13.2091 80.2091 15 78 15H4ZM4 45C1.79086 45 0 43.2091 0 41V34C0 31.7909 1.79086 30 4 30H78C80.2091 30 82 31.7909 82 34V41C82 43.2091 80.2091 45 78 45H4ZM0 71C0 73.2091 1.79086 75 4 75H78C80.2091 75 82 73.2091 82 71V64C82 61.7909 80.2091 60 78 60H4C1.79086 60 0 61.7909 0 64V71Z" fill="#717171"/>
</svg>
