<svg width="36" height="40" viewBox="0 0 36 40" fill="none" xmlns="http://www.w3.org/2000/svg">
<path fill-rule="evenodd" clip-rule="evenodd" d="M5.55429 0C5.32706 0 5.14286 0.184203 5.14286 0.411429V3.08571H0.411429C0.184203 3.08571 0 3.26992 0 3.49714V8.84571C0 9.07294 0.184204 9.25714 0.411429 9.25714H35.5886C35.8158 9.25714 36 9.07294 36 8.84571V3.49714C36 3.26992 35.8158 3.08571 35.5886 3.08571H30.8571V0.411429C30.8571 0.184203 30.6729 0 30.4457 0H5.55429ZM3.08571 11.7257C3.08571 11.4985 3.26992 11.3143 3.49714 11.3143H32.5029C32.7301 11.3143 32.9143 11.4985 32.9143 11.7257V38.6743C32.9143 38.9015 32.7301 39.0857 32.5029 39.0857H3.49714C3.26992 39.0857 3.08571 38.9015 3.08571 38.6743V11.7257Z" fill="#530000"/>
</svg>
